<svg width="79" height="73" viewBox="0 0 79 73" fill="none" xmlns="http://www.w3.org/2000/svg">
<path d="M1 48.0186V42.1454C1 40.1241 2.06366 38.2534 3.79665 37.2268L33.3652 19.7116C36.893 17.6218 41.2669 17.6006 44.8146 19.6561L76.578 38.0596C77.4579 38.5694 78 39.5122 78 40.5327V48.0408C78 48.9196 77.0534 49.469 76.2957 49.03L44.8146 30.7901C41.2669 28.7346 36.893 28.7558 33.3652 30.8456L2.71373 49.0023C1.95609 49.4511 1 48.9023 1 48.0186Z" fill="#E1FF46"/>
<path d="M1 30.8894V25.0162C1 22.9948 2.06366 21.1242 3.79665 20.0976L33.3652 2.58231C36.893 0.492562 41.2669 0.471392 44.8146 2.52689L76.578 20.9303C77.4579 21.4401 78 22.383 78 23.4035V30.9115C78 31.7903 77.0534 32.3398 76.2957 31.9008L44.8146 13.6609C41.2669 11.6054 36.893 11.6266 33.3652 13.7163L2.71373 31.8731C1.95609 32.3219 1 31.7731 1 30.8894Z" fill="#E1FF46"/>
<path d="M66.0664 50.5884V66.2903C66.0664 69.4437 63.5222 72 60.3838 72H18.6162C15.4778 72 12.9336 69.4437 12.9336 66.2903V50.5884M1 42.1454V48.0186C1 48.9023 1.95609 49.4511 2.71373 49.0023L33.3651 30.8456C36.893 28.7558 41.2669 28.7346 44.8146 30.7901L76.2957 49.03C77.0534 49.469 78 48.9196 78 48.0408V40.5327C78 39.5122 77.4579 38.5694 76.578 38.0596L44.8146 19.6561C41.2669 17.6006 36.893 17.6218 33.3652 19.7116L3.79665 37.2268C2.06366 38.2534 1 40.1241 1 42.1454ZM1 25.0162V30.8894C1 31.7731 1.95609 32.3219 2.71373 31.8731L33.3651 13.7163C36.893 11.6266 41.2669 11.6054 44.8146 13.6609L76.2957 31.9008C77.0534 32.3398 78 31.7903 78 30.9115V23.4035C78 22.383 77.4579 21.4401 76.578 20.9303L44.8146 2.52689C41.2669 0.471392 36.893 0.492562 33.3652 2.58231L3.79665 20.0976C2.06366 21.1242 1 22.9948 1 25.0162Z" stroke="#CFF700" stroke-width="2" stroke-linecap="round"/>
</svg>
