<svg width="801" height="409" viewBox="0 0 801 409" fill="none" xmlns="http://www.w3.org/2000/svg">
<path d="M168.359 50.0786C159.545 50.0786 152.478 47.7264 147.159 43.022C141.84 38.3177 139.181 32.3993 139.181 25.2669C139.181 17.9828 141.84 11.9885 147.159 7.28416C152.478 2.42805 159.545 0 168.359 0C177.021 0 184.012 2.42805 189.331 7.28416C194.65 11.9885 197.309 17.9828 197.309 25.2669C197.309 32.3993 194.65 38.3177 189.331 43.022C184.012 47.7264 177.021 50.0786 168.359 50.0786ZM144.775 60.3219C171.648 60.3219 193.434 82.1064 193.434 108.979V186.759C193.434 187.834 192.563 188.705 191.488 188.705C164.614 188.705 142.828 166.921 142.828 140.048V62.2682C142.828 61.1933 143.7 60.3219 144.775 60.3219Z" fill="#E1FF46"/>
<path d="M273.507 190.299C261.349 190.299 250.559 188.326 241.137 184.38C231.867 180.435 224.496 174.972 219.026 167.991C210.459 157.06 221.615 144.317 235.503 144.317H258.234C258.842 148.111 260.437 150.919 263.021 152.74C265.756 154.561 269.176 155.471 273.279 155.471C275.862 155.471 277.914 154.94 279.434 153.878C280.953 152.664 281.713 151.222 281.713 149.553C281.713 146.67 280.117 144.621 276.926 143.407C273.735 142.193 268.34 140.827 260.741 139.309C251.471 137.488 243.797 135.516 237.718 133.391C231.791 131.267 226.548 127.625 221.989 122.465C217.582 117.305 215.378 110.173 215.378 101.068C215.378 93.1765 217.43 86.0441 221.533 79.6705C225.788 73.1451 232.019 68.0613 240.225 64.4193C248.432 60.6254 258.386 58.7285 270.087 58.7285C287.412 58.7285 300.937 62.9776 310.663 71.4758C326.079 84.7383 310.226 104.71 289.889 104.71H283.537C282.777 101.219 281.181 98.5638 278.75 96.7427C276.318 94.7699 273.051 93.7835 268.948 93.7835C266.364 93.7835 264.389 94.3147 263.021 95.3769C261.653 96.2875 260.969 97.7291 260.969 99.7019C260.969 102.282 262.565 104.255 265.756 105.62C268.948 106.834 274.039 108.124 281.029 109.49C290.299 111.311 298.126 113.36 304.509 115.636C310.891 117.912 316.438 121.858 321.149 127.473C325.86 132.936 328.216 140.524 328.216 150.236C328.216 157.823 326.012 164.652 321.605 170.722C317.198 176.793 310.815 181.573 302.457 185.063C294.251 188.553 284.601 190.299 273.507 190.299Z" fill="#E1FF46"/>
<path d="M426.656 145.683C427.57 145.683 428.311 146.424 428.311 147.338V169.558C428.311 180.133 419.738 188.705 409.163 188.705C373.906 188.705 356.277 171.178 356.277 136.123V102.433H354.523C346.679 102.433 340.321 96.0753 340.321 88.2321V74.5233C340.321 66.6801 346.679 60.3219 354.523 60.3219H356.277V37.7981C356.277 33.1402 360.054 29.3643 364.712 29.3643H375.924C393.022 29.3643 406.883 43.2245 406.883 60.3219H413.653C421.497 60.3219 427.855 66.6801 427.855 74.5233V88.2321C427.855 96.0753 421.497 102.433 413.653 102.433H406.883V137.033C406.883 140.068 407.567 142.269 408.935 143.634C410.455 145 412.886 145.683 416.23 145.683H426.656Z" fill="#E1FF46"/>
<path d="M508.676 190.299C495.758 190.299 484.133 187.643 473.799 182.332C463.465 177.02 455.334 169.433 449.408 159.569C443.633 149.553 440.745 137.868 440.745 124.514C440.745 111.159 443.633 99.5501 449.408 89.6862C455.334 79.6705 463.465 72.0069 473.799 66.6956C484.133 61.3842 495.758 58.7285 508.676 58.7285C521.593 58.7285 533.219 61.3842 543.553 66.6956C553.887 72.0069 561.941 79.6705 567.716 89.6862C573.643 99.5501 576.606 111.159 576.606 124.514C576.606 137.868 573.643 149.553 567.716 159.569C561.941 169.433 553.887 177.02 543.553 182.332C533.219 187.643 521.593 190.299 508.676 190.299ZM508.676 146.594C513.387 146.594 517.338 144.773 520.53 141.131C523.721 137.337 525.317 131.798 525.317 124.514C525.317 117.229 523.721 111.766 520.53 108.124C517.338 104.33 513.387 102.433 508.676 102.433C503.965 102.433 500.014 104.33 496.822 108.124C493.631 111.766 492.035 117.229 492.035 124.514C492.035 131.798 493.555 137.337 496.594 141.131C499.786 144.773 503.813 146.594 508.676 146.594Z" fill="#E1FF46"/>
<path d="M392.753 268.78C383.938 268.78 376.872 266.428 371.553 261.723C366.234 257.019 363.574 251.101 363.574 243.968C363.574 236.684 366.234 230.69 371.553 225.986C376.872 221.129 383.938 218.701 392.753 218.701C401.415 218.701 408.406 221.129 413.725 225.986C419.043 230.69 421.703 236.684 421.703 243.968C421.703 251.101 419.043 257.019 413.725 261.723C408.406 266.428 401.415 268.78 392.753 268.78ZM369.168 279.023C396.042 279.023 417.828 300.808 417.828 327.68V405.46C417.828 406.535 416.956 407.407 415.881 407.407C389.007 407.407 367.222 385.622 367.222 358.75V280.97C367.222 279.895 368.093 279.023 369.168 279.023Z" fill="#E1FF46"/>
<path d="M497.9 409C485.743 409 474.953 407.027 465.531 403.082C456.261 399.136 448.89 393.673 443.419 386.692C434.853 375.762 446.009 363.019 459.896 363.019H482.627C483.235 366.813 484.831 369.62 487.414 371.441C490.15 373.262 493.569 374.173 497.672 374.173C500.256 374.173 502.307 373.641 503.827 372.579C505.347 371.365 506.107 369.924 506.107 368.254C506.107 365.371 504.511 363.322 501.32 362.108C498.128 360.894 492.733 359.528 485.135 358.011C475.865 356.19 468.19 354.217 462.111 352.092C456.185 349.968 450.942 346.326 446.383 341.166C441.975 336.007 439.772 328.874 439.772 319.769C439.772 311.878 441.823 304.745 445.927 298.372C450.182 291.846 456.413 286.763 464.619 283.121C472.825 279.327 482.779 277.43 494.481 277.43C511.806 277.43 525.331 281.679 535.057 290.177C550.473 303.44 534.619 323.411 514.283 323.411H507.93C507.171 319.921 505.575 317.265 503.143 315.444C500.712 313.471 497.444 312.485 493.341 312.485C490.758 312.485 488.782 313.016 487.414 314.078C486.047 314.989 485.363 316.43 485.363 318.403C485.363 320.983 486.959 322.956 490.15 324.322C493.341 325.536 498.432 326.826 505.423 328.191C514.693 330.012 522.519 332.061 528.902 334.337C535.285 336.614 540.832 340.559 545.543 346.174C550.254 351.637 552.609 359.225 552.609 368.937C552.609 376.525 550.406 383.354 545.999 389.424C541.592 395.494 535.209 400.274 526.851 403.764C518.644 407.255 508.994 409 497.9 409Z" fill="#E1FF46"/>
<path d="M651.05 364.385C651.964 364.385 652.705 365.125 652.705 366.039V388.259C652.705 398.834 644.132 407.407 633.557 407.407C598.3 407.407 580.671 389.879 580.671 354.824V321.135H578.916C571.073 321.135 564.714 314.777 564.714 306.933V293.225C564.714 285.381 571.073 279.023 578.916 279.023H580.671V256.5C580.671 251.842 584.447 248.066 589.105 248.066H600.318C617.416 248.066 631.277 261.926 631.277 279.023H638.047C645.89 279.023 652.249 285.381 652.249 293.225V306.933C652.249 314.777 645.89 321.135 638.047 321.135H631.277V355.735C631.277 358.77 631.961 360.97 633.329 362.336C634.848 363.702 637.28 364.385 640.623 364.385H651.05Z" fill="#E1FF46"/>
<path d="M733.069 409C720.152 409 708.526 406.344 698.192 401.033C687.858 395.722 679.728 388.134 673.801 378.27C668.026 368.254 665.139 356.569 665.139 343.215C665.139 329.861 668.026 318.252 673.801 308.388C679.728 298.372 687.858 290.708 698.192 285.397C708.526 280.086 720.152 277.43 733.069 277.43C745.987 277.43 757.613 280.086 767.947 285.397C778.281 290.708 786.335 298.372 792.11 308.388C798.037 318.252 801 329.861 801 343.215C801 356.569 798.037 368.254 792.11 378.27C786.335 388.134 778.281 395.722 767.947 401.033C757.613 406.344 745.987 409 733.069 409ZM733.069 365.295C737.781 365.295 741.732 363.474 744.923 359.832C748.114 356.038 749.71 350.499 749.71 343.215C749.71 335.931 748.114 330.468 744.923 326.826C741.732 323.032 737.781 321.135 733.069 321.135C728.358 321.135 724.407 323.032 721.216 326.826C718.024 330.468 716.429 335.931 716.429 343.215C716.429 350.499 717.948 356.038 720.988 359.832C724.179 363.474 728.206 365.295 733.069 365.295Z" fill="#E1FF46"/>
<path d="M352.213 399.969C352.213 380.018 336.038 363.844 316.086 363.844H303.417V253.61L259.455 305.928C255.155 311.045 252.798 317.515 252.798 324.199V366.396C252.798 389.925 271.873 409 295.404 409H343.181C348.169 409 352.213 404.957 352.213 399.969Z" fill="#E1FF46"/>
<path d="M303.417 223.303C303.417 220.762 301.357 218.701 298.816 218.701C273.401 218.701 252.798 239.303 252.798 264.717V288.635C252.798 293.632 258.785 296.194 262.4 292.745L303.417 253.61V223.303Z" fill="#E1FF46"/>
<path d="M25.5933 190.299C39.728 190.299 51.1865 178.841 51.1865 164.707V129.822L11.0654 161.589C4.07585 167.123 0 175.548 0 184.463C0 187.686 2.61272 190.299 5.83568 190.299H25.5933Z" fill="#E1FF46"/>
<path fill-rule="evenodd" clip-rule="evenodd" d="M126.352 98.1059C131.117 88.2505 133.5 77.32 133.5 65.3143C133.5 45.4244 128.12 29.5662 117.36 17.7397C106.754 5.91323 91.4594 0 71.4767 0H56.8085C25.4341 0 0 25.4327 0 56.8056V111.162C0 134.225 26.0359 147.672 44.8442 134.324L51.1865 129.822H71.4767C84.696 129.822 95.9171 126.955 105.14 121.221C114.516 115.487 121.587 107.782 126.352 98.1059ZM81.6218 65.3143C81.6218 76.9616 76.3186 82.7853 65.7124 82.7853H51.1865V47.8434H65.7124C76.3186 47.8434 81.6218 53.6671 81.6218 65.3143Z" fill="#E1FF46"/>
</svg>
